<svg xmlns="http://www.w3.org/2000/svg" width="200" height="200" viewBox="0 0 200 200">
  <g id="Layer_2" data-name="Layer 2">
    <g id="Layer_1-2" data-name="Layer 1">
      <rect width="200" height="200" style="fill: none"/>
      <g>
        <path d="M171.63,142.22l-33.34-33.34a61.052,61.052,0,1,0-24.14,24.6l33.1,33.1a17.232,17.232,0,0,0,24.38-24.36Zm-58.97-17.14a53.118,53.118,0,1,1,17.23-17.59v.01A53.509,53.509,0,0,1,112.66,125.08Zm53.31,35.85a9.246,9.246,0,0,1-13.06,0l-31.9-31.9a61.96,61.96,0,0,0,12.94-13.18l32.02,32.02A9.265,9.265,0,0,1,165.97,160.93Z" style="fill: #c2c2c0"/>
        <path d="M76.95,77.13v24.76h-8V77.13a4,4,0,0,1,8,0Z" style="fill: #c2c2c0"/>
        <path d="M94.13,61.95v39.94h-8V61.95a4,4,0,1,1,8,0Z" style="fill: #c2c2c0"/>
        <path d="M110.06,87.18v14.71h-8V87.18a4,4,0,0,1,8,0Z" style="fill: #c2c2c0"/>
        <path d="M121.82,105.89a4,4,0,0,1-4,4H56.79a4,4,0,0,1-4-4V49.06a4,4,0,0,1,8,0v52.83h57.03A4,4,0,0,1,121.82,105.89Z" style="fill: #c2c2c0"/>
      </g>
    </g>
  </g>
</svg>
