<svg xmlns="http://www.w3.org/2000/svg" width="200" height="200" viewBox="0 0 200 200">
  <g id="Layer_2" data-name="Layer 2">
    <g id="Layer_1-2" data-name="Layer 1">
      <path d="M83.03,95.307H39.992a10.011,10.011,0,0,1-10-10V42.268a10.011,10.011,0,0,1,10-10H83.03a10.011,10.011,0,0,1,10,10V85.307A10.011,10.011,0,0,1,83.03,95.307ZM39.992,40.268a2,2,0,0,0-2,2V85.307a2,2,0,0,0,2,2H83.03a2,2,0,0,0,2-2V42.268a2,2,0,0,0-2-2Z" style="fill: #c3c3c1"/>
      <path d="M160.008,95.307H116.97a10.011,10.011,0,0,1-10-10V42.268a10.011,10.011,0,0,1,10-10h43.038a10.011,10.011,0,0,1,10,10V85.307A10.011,10.011,0,0,1,160.008,95.307ZM116.97,40.268a2,2,0,0,0-2,2V85.307a2,2,0,0,0,2,2h43.038a2,2,0,0,0,2-2V42.268a2,2,0,0,0-2-2Z" style="fill: #c3c3c1"/>
      <path d="M83.03,171.623H39.992a10.011,10.011,0,0,1-10-10V118.584a10.011,10.011,0,0,1,10-10H83.03a10.011,10.011,0,0,1,10,10v43.039A10.011,10.011,0,0,1,83.03,171.623ZM39.992,116.584a2,2,0,0,0-2,2v43.039a2,2,0,0,0,2,2H83.03a2,2,0,0,0,2-2V118.584a2,2,0,0,0-2-2Z" style="fill: #c3c3c1"/>
      <path d="M160.008,171.623H116.97a10.011,10.011,0,0,1-10-10V118.584a10.011,10.011,0,0,1,10-10h43.038a10.011,10.011,0,0,1,10,10v43.039A10.011,10.011,0,0,1,160.008,171.623ZM116.97,116.584a2,2,0,0,0-2,2v43.039a2,2,0,0,0,2,2h43.038a2,2,0,0,0,2-2V118.584a2,2,0,0,0-2-2Z" style="fill: #c3c3c1"/>
      <rect width="200" height="200" style="fill: none"/>
    </g>
  </g>
</svg>
