<svg xmlns="http://www.w3.org/2000/svg" width="200" height="200" viewBox="0 0 200 200">
  <g id="Layer_2" data-name="Layer 2">
    <g id="Layer_1-2" data-name="Layer 1">
      <path d="M125.892,153.438H57.433a13.591,13.591,0,0,1-13.576-13.576V44.4A13.59,13.59,0,0,1,57.433,30.821H70.609a4,4,0,1,1,0,8H57.433A5.582,5.582,0,0,0,51.857,44.4v95.466a5.582,5.582,0,0,0,5.576,5.576h68.459a5.582,5.582,0,0,0,5.575-5.576V44.4a5.581,5.581,0,0,0-5.575-5.575H112.715a4,4,0,0,1,0-8h13.177A13.59,13.59,0,0,1,139.467,44.4v95.466A13.591,13.591,0,0,1,125.892,153.438Z" style="fill: #c3c3c1"/>
      <path d="M138.093,171.623H68.875a15.32,15.32,0,0,1-15.3-15.3v-6.886a4,4,0,0,1,8,0v6.886a7.311,7.311,0,0,0,7.3,7.3h69.218a10.062,10.062,0,0,0,10.05-10.05V55.2a7.31,7.31,0,0,0-7.3-7.3h-5.386a4,4,0,0,1,0-8h5.386a15.32,15.32,0,0,1,15.3,15.3v98.376A18.071,18.071,0,0,1,138.093,171.623Z" style="fill: #c3c3c1"/>
      <path d="M106.713,48.184H76.61a10.011,10.011,0,0,1-10-10V31.3a10.011,10.011,0,0,1,10-10h30.1a10.011,10.011,0,0,1,10,10v6.885A10.011,10.011,0,0,1,106.713,48.184ZM76.61,29.3a2,2,0,0,0-2,2v6.885a2,2,0,0,0,2,2h30.1a2,2,0,0,0,2-2V31.3a2,2,0,0,0-2-2Z" style="fill: #c3c3c1"/>
      <g>
        <path d="M116.288,69.849H67.447a4,4,0,0,1,0-8h48.841a4,4,0,0,1,0,8Z" style="fill: #c3c3c1"/>
        <path d="M116.288,96.129H67.447a4,4,0,0,1,0-8h48.841a4,4,0,0,1,0,8Z" style="fill: #c3c3c1"/>
        <path d="M116.288,122.409H67.447a4,4,0,0,1,0-8h48.841a4,4,0,0,1,0,8Z" style="fill: #c3c3c1"/>
      </g>
      <rect width="200" height="200" style="fill: none"/>
    </g>
  </g>
</svg>
