<svg xmlns="http://www.w3.org/2000/svg" width="200" height="200" viewBox="0 0 200 200">
  <g id="Layer_2" data-name="Layer 2">
    <g id="Layer_1-2" data-name="Layer 1">
      <rect width="200" height="200" style="fill: none"/>
      <g>
        <path d="M129.889,107.5v0h0a52.993,52.993,0,1,0-17.231,17.588A53.57,53.57,0,0,0,129.889,107.5Zm-77.1-1.6V49.064a4,4,0,1,1,8,0v52.828h8.16V77.128a4,4,0,0,1,8,0v24.764h9.175V61.945a4,4,0,1,1,8,0v39.947h7.937V87.177a4,4,0,0,1,8,0v14.715h7.757a4,4,0,0,1,0,8H56.791A4,4,0,0,1,52.791,105.892Z" style="fill: none"/>
        <path d="M133.949,115.85a61.8,61.8,0,0,1-12.936,13.18l31.895,31.9a9.235,9.235,0,1,0,13.063-13.057Z" style="fill: none"/>
        <path d="M171.63,142.217l-33.339-33.339a61.016,61.016,0,1,0-24.137,24.606l33.1,33.1a17.262,17.262,0,0,0,24.378,0l0,0A17.269,17.269,0,0,0,171.63,142.217ZM31.34,80.139a53.07,53.07,0,1,1,98.551,27.354h0v0a53.57,53.57,0,0,1-17.229,17.585A53.09,53.09,0,0,1,31.34,80.139Zm134.632,80.79a9.255,9.255,0,0,1-13.064,0l-31.895-31.9a61.8,61.8,0,0,0,12.936-13.18l32.022,32.02A9.259,9.259,0,0,1,165.972,160.929Z" style="fill: #c2c2c0"/>
        <path d="M76.951,77.128a4,4,0,0,0-8,0v24.764h8Z" style="fill: #bfdbfe"/>
        <path d="M94.126,61.945a4,4,0,1,0-8,0v39.947h8Z" style="fill: #bfdbfe"/>
        <path d="M110.063,87.177a4,4,0,0,0-8,0v14.715h8Z" style="fill: #bfdbfe"/>
        <path d="M121.82,105.892a4,4,0,0,0-4-4H60.791V49.064a4,4,0,1,0-8,0v56.828a4,4,0,0,0,4,4H117.82A4,4,0,0,0,121.82,105.892Z" style="fill: #c2c2c0"/>
      </g>
    </g>
  </g>
</svg>
