<svg xmlns="http://www.w3.org/2000/svg" width="200" height="200" viewBox="0 0 200 200">
  <g id="Layer_2" data-name="Layer 2">
    <g id="Layer_1-2" data-name="Layer 1">
      <path d="M100,160.855a66.624,66.624,0,1,1,66.624-66.624A66.7,66.7,0,0,1,100,160.855Zm0-125.247a58.624,58.624,0,1,0,58.624,58.623A58.69,58.69,0,0,0,100,35.608Z" style="fill: #c3c3c1"/>
      <g>
        <path d="M100,50.6a4,4,0,0,1-4-4V19.626a4,4,0,0,1,8,0V46.6A4,4,0,0,1,100,50.6Z" style="fill: #c3c3c1"/>
        <path d="M100,171.623a4,4,0,0,1-4-4V140.647a4,4,0,0,1,8,0v26.976A4,4,0,0,1,100,171.623Z" style="fill: #c3c3c1"/>
      </g>
      <g>
        <path d="M174,97.625H147.022a4,4,0,0,1,0-8H174a4,4,0,0,1,0,8Z" style="fill: #c3c3c1"/>
        <path d="M52.978,97.625H26a4,4,0,1,1,0-8H52.978a4,4,0,1,1,0,8Z" style="fill: #c3c3c1"/>
      </g>
      <path d="M94.4,110.757a5.817,5.817,0,0,1-4.146-1.72c-.048-.047-.094-.1-.14-.146L78.754,96.305a4,4,0,0,1,5.939-5.36l9.787,10.844,24.13-24.124a4,4,0,1,1,5.657,5.657L98.544,109.04A5.828,5.828,0,0,1,94.4,110.757Z" style="fill: #bfdbfe"/>
      <path d="M100,141.845a47.613,47.613,0,1,1,47.612-47.614A47.667,47.667,0,0,1,100,141.845Zm0-87.226a39.613,39.613,0,1,0,39.612,39.612A39.656,39.656,0,0,0,100,54.619Z" style="fill: #c3c3c1"/>
      <rect width="200" height="200" style="fill: none"/>
    </g>
  </g>
</svg>
